<svg t="1694685932840" class="icon" viewBox="0 0 1024 1024" version="1.1" xmlns="http://www.w3.org/2000/svg" p-id="4048" width="128" height="128"><path d="M811.8 203.6h-98V200c0-19.9-16.1-36-36-36H625c-8.2-54.8-55.6-97-112.7-97s-104.5 42.2-112.7 97h-52.8c-19.9 0-36 16.1-36 36v3.6h-98c-19.9 0-36 16.1-36 36v682.6c0 19.9 16.1 36 36 36h599c19.9 0 36-16.1 36-36V239.6c0-19.9-16.1-36-36-36zM512.3 139c17.1 0 31.9 10.3 38.4 25h-76.8c6.6-14.8 21.3-25 38.4-25z m-129.5 97h259v64h-259v-64z m393 650.2h-527V275.6h62V336c0 19.9 16.1 36 36 36h331c19.9 0 36-16.1 36-36v-60.4h62v610.6z" p-id="4049" fill="#ffffff"></path><path d="M677.8 486.1h-331c-19.9 0-36 16.1-36 36s16.1 36 36 36h331c19.9 0 36-16.1 36-36s-16.1-36-36-36zM677.8 669h-331c-19.9 0-36 16.1-36 36s16.1 36 36 36h331c19.9 0 36-16.1 36-36s-16.1-36-36-36z" p-id="4050" fill="#ffffff"></path></svg>